<svg width="185" height="173" viewBox="0 0 185 173" fill="none" xmlns="http://www.w3.org/2000/svg">
<path fill-rule="evenodd" clip-rule="evenodd" d="M140.734 98.9181C139.017 77.9658 133.787 59.4087 109.213 58.6174C98.1232 58.7166 86.8031 61.0741 76.6052 65.4361C51.8185 77.8724 43.954 123.315 65.7918 141.608C65.6619 141.682 65.6306 141.895 65.784 141.999C70.2957 145.036 75.3105 147.535 80.3331 149.635C93.7119 155.295 109.462 157.753 123.106 151.614C143.928 142.748 144.241 118.077 140.734 98.9181V98.9181Z" fill="#EDB98A"/>
<path fill-rule="evenodd" clip-rule="evenodd" d="M181.72 89.1523C182.576 88.381 183.214 87.3694 183.537 86.2351C183.832 85.201 183.852 84.0717 183.539 83.04C183.204 81.9332 182.481 81.0518 182.643 79.9C182.661 79.7873 182.683 79.6696 182.718 79.5519C183.344 77.3835 184.883 75.8185 184.332 73.4146C184.177 72.736 183.884 72.1251 183.476 71.6443C183.522 71.1235 183.562 70.5976 183.594 70.0718C184.497 67.9559 184.465 65.4419 183.501 63.3586C183.384 62.2919 183.206 61.2352 182.956 60.196C183.071 59.277 182.911 58.2654 182.616 57.4616C182.097 56.0474 181.456 54.6537 180.76 53.283C180.842 52.9081 180.805 52.512 180.599 52.1597C180.223 51.5194 179.726 50.9565 179.218 50.4064C178.859 49.7646 178.498 49.1281 178.139 48.4998C177.973 48.2111 177.789 47.8909 177.587 47.5516C178.138 46.5284 178.433 45.5313 177.85 44.3282C177.631 43.8762 177.029 43.5429 176.533 43.5725C175.991 43.6048 175.445 43.629 174.895 43.6498C173.867 42.4083 172.703 41.2938 171.455 40.6523C170.192 39.5806 168.911 38.5289 167.664 37.4547C167.312 37.1492 166.956 36.8437 166.603 36.5382C166.601 36.5307 166.598 36.5207 166.596 36.5132C166.336 35.5642 166.043 34.6277 165.75 33.6862C165.568 33.1027 165.512 32.4918 164.944 32.1737C163.758 31.5102 161.934 31.405 160.573 31.2923C160.438 31.1721 160.303 31.0545 160.168 30.9343C160.786 29.2866 160.676 27.5363 159.897 25.8862C159.632 25.3253 158.711 25.0724 158.206 25.443C157.04 26.2994 155.656 26.6023 154.287 26.4771C152.275 24.9297 144.16 17.932 142.906 17.1933C142.891 17.1668 142.878 17.1402 142.862 17.1139C142.157 15.9876 141.301 15.0832 140.339 14.358C140.201 14.2146 140.064 14.0708 139.926 13.9271C140.047 13.0685 140.365 12.2394 140.877 11.5458C140.932 11.4657 140.995 11.388 141.057 11.3129C141.953 10.2462 140.86 8.87403 139.609 9.43242C139.519 9.47248 139.428 9.51255 139.338 9.55511C138.377 9.9843 137.312 10.4508 136.204 10.8444C135.798 10.6924 135.385 10.5547 135.008 10.403L130.97 8.77862C130.306 8.5112 129.603 8.28459 128.96 7.97033C128.736 6.4782 127.242 5.49964 125.69 5.55072C125.779 5.26426 125.913 4.98607 126.101 4.72239C126.156 4.64477 126.216 4.56965 126.279 4.49703C127.077 3.56805 126.011 1.8453 124.87 2.67162C124.79 2.72921 124.707 2.7868 124.627 2.84439C124.31 3.067 123.986 3.27583 123.658 3.47816C123.133 3.24879 122.541 3.19646 121.922 3.43909C120.551 3.9762 119.287 4.52232 118.081 5.36417C118.032 5.39847 117.981 5.42727 117.931 5.45957C117.332 4.73542 116.381 4.25114 115.525 4.2564C115.507 4.2564 115.493 4.25615 115.478 4.2559C114.838 3.27959 113.664 2.71218 112.53 2.85015C112.607 1.44917 111.205 0.198918 109.929 0.0469255C108.439 -0.130358 107.095 0.735776 106.647 2.1911C106.523 2.59625 106.398 3.00165 106.274 3.40704C105.116 2.82236 103.895 2.37439 102.618 2.15079C99.7125 1.64147 96.8711 2.18384 94.0708 2.99113C93.7911 3.07176 93.5115 3.15464 93.232 3.23727C92.8327 2.77428 92.4581 2.30028 92.1 1.85782C91.4819 1.0941 89.9981 1.70507 90.0982 2.68664C90.1677 3.36397 89.8927 3.85125 89.4501 4.19756C88.9639 4.26867 88.4939 4.2902 87.7853 4.27593C86.8487 4.2569 86.4225 4.2276 85.4431 3.84549C84.9867 3.66771 84.4184 3.20021 84.1524 2.78054C83.1328 1.17122 80.5426 0.737779 79.309 2.27223C78.0108 1.70357 76.3718 2.48782 75.6511 3.59359C75.274 4.17176 74.4873 4.49503 73.4969 4.77298C72.7535 4.98131 71.9933 5.13906 71.2296 5.27703C70.8893 4.81504 70.1726 4.5053 69.6469 4.89267C69.2908 5.15584 68.945 5.42602 68.6039 5.70296C65.974 6.06554 63.3578 6.07856 60.8503 5.05242C58.7273 4.18353 56.778 6.55657 57.1284 8.54876C56.5136 8.86902 55.8464 9.08211 55.2391 9.41765C53.9142 10.1503 52.8262 11.3084 52.1631 12.6691C52.0442 12.9127 51.9368 13.1601 51.8345 13.4088C51.3393 13.8122 50.8496 14.2263 50.3717 14.6633C49.5759 14.2551 48.7827 13.847 47.987 13.4388C47.3914 13.1333 46.388 13.3462 46.2704 14.1374C46.0777 15.4395 45.6098 16.5187 44.9417 17.4227C42.7697 18.5645 40.6803 19.8466 38.6809 21.2713C36.3813 21.9925 33.9366 22.4132 31.9272 22.8864C31.2391 23.0492 30.8637 23.9481 31.2516 24.5466C31.662 25.1801 32.0723 25.8136 32.4802 26.4471C31.3367 27.5639 30.2632 28.7307 29.2498 29.9377C26.4297 33.293 24.07 36.9714 21.9581 40.8676C21.1223 41.2057 20.2865 41.5412 19.4507 41.8793C18.645 42.2048 18.2822 43.1413 18.9353 43.8299C19.2456 44.1579 19.5233 44.5034 19.761 44.8665C18.5774 46.8272 17.1837 48.615 15.2344 49.7869C14.6413 50.1425 14.1959 50.7008 13.9582 51.3344C13.7555 51.4696 13.5553 51.6148 13.3576 51.7625C12.8071 52.1782 12.4743 53.0847 13.1199 53.623C13.5728 54.0036 13.9982 54.4543 14.3586 54.9526C14.4361 55.2356 14.5162 55.521 14.5963 55.804C12.7846 57.4717 11.2782 59.4098 10.1472 61.5832C9.87945 61.5407 9.6042 61.5682 9.38149 61.7335C7.35964 63.2284 7.29958 65.6097 8.11283 67.7381C7.62238 70.9457 7.93767 74.2334 8.88354 77.3409C7.63989 78.5829 6.89171 80.3757 6.58643 82.1035C6.04843 85.1384 6.0109 89.8058 5.87077 92.9033C4.51452 94.2129 3.54864 95.9081 3.01064 97.731C2.55772 97.9563 2.10481 98.1817 1.65189 98.407C1.24902 98.6074 0.953751 99.1357 0.978774 99.5814C1.09388 101.737 1.9822 103.44 3.16078 104.983C3.57866 106.172 4.19673 107.269 5.00748 108.32C5.56799 109.042 6.11599 109.733 6.59894 110.511C6.64898 110.589 6.67901 110.662 6.70153 110.712C6.51136 110.917 6.35371 111.258 6.21609 111.5C5.06002 113.539 5.04251 115.928 6.68402 117.703C6.06595 118.209 6.04593 119.23 6.59143 119.856C10.1422 123.915 13.1024 128.851 18.0294 131.007C18.052 131.044 18.072 131.082 18.0895 131.119C17.0911 133.523 16.956 134.773 17.7717 137.257C17.7767 137.279 17.7842 137.299 17.7917 137.322C18.2271 138.624 19.0279 140.71 20.4717 141.115C20.9271 141.243 21.375 141.301 21.8179 141.298C22.964 142.402 24.1075 143.509 25.2511 144.616C25.3512 145.164 25.4137 145.718 25.4337 146.276C25.4663 147.21 26.3446 147.966 27.2905 147.691C27.6233 147.593 29.4649 145.803 29.8028 145.813C29.9729 145.983 30.1381 146.153 30.3032 146.326C30.9113 146.965 31.7546 147.971 31.8246 148.64C31.9597 149.899 32.7855 151.342 34.1192 151.597C34.6197 152.105 35.4204 152.258 36.0335 151.595C36.0735 151.552 36.1136 151.509 36.1561 151.472C36.2212 151.464 36.2837 151.457 36.3488 151.449C36.644 152.331 36.9393 153.212 37.2371 154.091C37.8201 155.824 40.0472 156.938 41.6286 155.926C41.8839 156.079 42.1341 156.242 42.3843 156.405C42.7647 156.648 43.15 156.895 43.5454 157.128C43.5679 157.193 43.5904 157.259 43.6104 157.321C43.8657 158.1 44.9267 158.518 45.5798 158.07C45.7824 158.135 45.9901 158.188 46.2003 158.23C47.3038 158.448 48.4149 158.388 49.4808 158.02C50.244 157.759 50.9722 157.261 51.793 157.193C51.8443 157.189 51.8971 157.193 51.9491 157.191C52.6187 158.564 54.1489 159.747 55.3547 160.149C56.9342 160.675 58.5507 160.487 59.989 159.842C60.3771 160.619 60.8646 161.354 61.4468 162.034C61.7696 162.409 62.3527 162.329 62.6855 162.034C63.3176 161.473 63.9456 160.91 64.5727 160.345C65.0266 160.17 65.4848 159.96 65.9627 159.765C67.4576 159.154 69.0964 158.901 70.4789 158.018C71.1352 157.599 71.7526 157.064 72.261 156.444C73.2189 155.891 74.099 155.202 74.8917 154.412C75.2871 154.414 75.6999 154.321 76.1003 154.119C77.7743 153.267 78.6551 151.534 78.7327 149.762C80.089 146.569 80.8897 143.164 81.1099 139.678C81.18 138.534 81.1925 137.379 81.1049 136.235C81.0448 135.429 80.8422 134.89 80.5369 134.162C80.4343 133.924 80.3417 133.706 80.2691 133.466C80.2866 132.694 80.2967 131.923 80.3067 131.154C80.5144 130.506 80.8847 129.902 81.4002 129.394C82.1984 128.608 82.5637 126.975 81.8381 126.004C81.3651 125.375 80.8947 124.747 80.4218 124.118C80.5544 121.421 81.2 117.129 79.7687 116.679C79.8262 116.278 79.9488 115.882 80.0189 115.484C80.3542 113.571 80.154 111.861 79.1381 110.188C78.9254 109.84 78.7452 109.532 78.5976 109.232C78.505 108.681 78.4124 108.13 78.3198 107.579C78.1772 106.73 78.0371 105.874 77.917 105.013C77.8544 103.916 77.7969 102.819 77.7343 101.72C77.6767 100.708 77.6117 99.6966 77.5441 98.6825C77.5716 98.2293 77.6117 97.776 77.6692 97.3228C78.0121 94.621 79.1156 93.6219 81.0273 91.7439C81.3276 91.6963 81.6254 91.6437 81.9181 91.5836C83.2819 91.3007 84.7082 90.8625 86.112 91.0202C87.6359 91.1905 88.9997 91.8491 90.481 91.0077C90.9164 90.7573 91.8748 90.0662 91.9574 89.5178C91.9624 89.4828 91.9699 89.4528 91.9799 89.4302C92.0825 89.4152 92.2151 89.4027 92.2977 89.4002C93.4738 89.3601 94.5973 89.8233 95.7834 89.6956C97.1872 89.5454 98.4433 88.9219 99.2691 87.9979C100.328 88.2583 101.409 88.376 102.507 88.2308C103.428 88.1106 104.254 87.8101 105.069 87.3644C105.662 87.0439 105.475 86.9513 106.12 87.2117C107.589 87.8076 108.918 88.5939 110.572 88.1857C111.43 87.9754 112.171 87.5121 112.794 86.8886C112.942 86.7434 113.192 86.5256 113.36 86.3202C114.145 86.7184 116.122 87.6173 116.447 87.6974C117.368 87.9228 118.344 87.8877 119.24 87.5873C119.898 87.3669 120.704 86.766 121.282 86.6433C122.03 86.483 123.692 87.5247 124.585 87.8827C126.151 88.5112 127.81 88.6665 129.397 88.018C129.942 87.7951 131.003 86.9062 131.411 86.9137C132.074 87.7325 133.926 92.2122 134.481 93.8473C136.731 100.458 137.314 121.098 136.276 126.364C136.236 126.519 136.193 126.672 136.15 126.827C134.874 131.407 133.546 136.065 131.411 140.332C129.397 144.353 126.612 147.974 122.616 150.17C118.472 152.448 113.607 153.047 108.948 152.739C105.948 152.544 102.998 151.94 100.095 151.184C98.5785 150.791 97.0746 150.353 95.5782 149.897C94.9251 149.699 94.262 149.514 93.6214 149.283C92.4904 148.875 91.8973 148.843 90.8138 149.366C89.8279 149.842 89.5752 151.246 90.0882 152.13C90.9239 153.573 92.4553 153.673 93.9342 154.094C95.4406 154.522 96.952 154.932 98.4734 155.3C101.389 156.002 104.351 156.54 107.339 156.788C112.689 157.236 118.201 156.545 123.071 154.209C123.621 153.943 124.152 153.66 124.665 153.355C124.475 153.62 124.282 153.886 124.087 154.149C123.546 154.877 123.947 156.117 124.705 156.515C124.945 156.64 125.185 156.76 125.428 156.878C125.461 156.956 125.496 157.033 125.536 157.111C126.229 158.503 127.68 159.324 129.159 159.68C130.916 160.101 132.882 159.803 134.669 159.75C136.326 159.7 137.982 159.65 139.636 159.6C140.027 159.59 140.417 159.577 140.807 159.565C142.774 159.505 144.738 159.447 146.703 159.387C148.454 159.334 148.372 159.47 150.016 158.768C150.749 158.453 151.349 158.007 151.855 157.414C152.17 157.274 152.475 157.113 152.768 156.931C153.709 156.345 154.545 155.558 155.316 154.692C156.624 155.105 158.458 154.722 158.714 153.077C159.124 150.445 162.542 149.321 164.139 147.418C165.427 145.883 166.348 143.872 166.301 141.942C169.549 140.369 171.315 136.225 171.728 132.709C171.921 131.079 171.891 129.334 172.169 127.676C172.291 127.544 172.401 127.403 172.494 127.253C173.31 125.934 174.02 124.574 174.646 123.182C175.497 122.568 176.52 122.19 177.591 122.127C180.223 121.975 180.719 118.422 178.209 117.565C178.197 117.56 178.187 117.558 178.174 117.553C178.855 115.85 178.797 113.834 177.971 112.222C178.006 112.046 178.039 111.874 178.071 111.698C179.48 110.183 180.289 108.078 180.198 106.027C180.842 105.574 181.562 105.223 182.35 105.005C183.569 104.67 183.577 103.182 182.676 102.516C182.313 102.248 182.013 101.935 181.762 101.59C182.385 99.7166 182.14 97.5507 180.867 96.0132C181.675 94.9766 182.483 93.9399 183.291 92.9033C183.827 92.2172 184.11 91.0528 183.291 90.4018C182.768 89.9836 182.245 89.5679 181.72 89.1523Z" fill="black"/>
<path fill-rule="evenodd" clip-rule="evenodd" d="M123.236 134.468C121.534 135.136 119.524 135.294 117.767 134.725C116.087 134.18 114.562 132.969 113.639 131.445C112.817 130.088 112.474 128.477 112.96 126.872C112.983 126.795 113.058 126.746 113.131 126.727C113.528 127.088 113.774 127.447 114.019 127.804C114.433 128.406 114.847 129.002 115.416 129.516C116.244 130.265 117.36 130.873 118.467 131.074C119.551 131.271 120.66 131.097 121.631 130.579C122.221 130.264 122.698 129.843 123.171 129.42C123.685 128.96 124.192 128.492 124.901 128.232C125.469 128.024 126.065 128.2 126.523 128.548C127.016 128.923 127.37 129.509 127.351 130.123C127.32 131.073 126.904 131.865 126.299 132.519C125.482 133.403 124.327 134.04 123.236 134.468ZM121.216 110.793C123.109 111.942 125.994 114.622 123.957 117.472C121.56 119.984 118.107 117.103 116.406 115.801C114.829 114.791 113.056 117.388 114.52 118.567C126.813 127.655 131.802 111.093 122.173 109.441C121.113 109.259 120.72 110.437 121.216 110.793ZM101.299 94.8677C103.88 94.7445 106.154 95.9018 108.613 96.4277C110.886 96.914 113.126 96.622 115.336 96.0035C118.923 94.9996 120.406 100.483 116.868 101.552C114.291 102.33 111.578 102.384 108.934 101.983C106.585 101.627 104.616 100.485 102.376 99.8201C100.454 99.2498 98.1934 99.4868 96.1637 99.7553L95.3758 99.8612C94.2048 100.019 93.0275 100.177 91.868 100.405C90.8619 100.604 89.8576 100.967 88.8308 101.009C88.7142 101.014 88.6154 100.863 88.6888 100.762C89.8817 99.1268 92.1807 97.8366 94.0094 96.976L94.1333 96.918C96.3907 95.867 98.7854 94.9874 101.299 94.8677ZM100.353 106.926L100.353 106.869C100.356 105.273 101.288 101.627 103.59 101.627C105.028 101.627 105.901 104.108 106.052 106.666L106.057 106.77C106.124 108.36 105.687 111.836 103.59 111.836C101.47 111.836 100.375 108.544 100.353 106.926V106.926ZM134.245 106.926L134.245 106.869C134.241 105.273 133.31 101.627 131.008 101.627C129.606 101.627 128.741 103.986 128.558 106.474L128.546 106.666C128.455 108.202 128.864 111.836 131.008 111.836C133.128 111.836 134.223 108.544 134.245 106.926V106.926ZM134.209 92.9229L134.374 92.9265C137.064 93.0197 139.831 94.611 140.549 97.284C140.587 97.4227 140.415 97.5161 140.314 97.4209C138.102 95.353 135.127 97.329 132.912 98.3647L132.098 98.74C129.243 100.067 125.995 101.626 122.825 100.638C121.319 100.168 120.363 98.6231 120.792 97.0626C121.174 95.6742 122.853 94.5073 124.306 95.0084L124.372 95.0324C125.553 95.4835 127.005 95.0264 128.225 94.5758L129.227 94.2C130.839 93.5895 132.457 92.9065 134.209 92.9229V92.9229Z" fill="black"/>
</svg>
