<svg xmlns="http://www.w3.org/2000/svg" width="300" height="286.195" viewBox="0 0 300 286.195">
  <g id="Afro_head" data-name="Afro head" transform="translate(-479.5 -216)">
    <g id="_Skin" data-name="âœ‹ Skin" transform="translate(575.243 337.117)">
      <path id="_Skin-2" data-name="âœ‹ Skin" d="M143.415,68.881C140.607,33.07,132.056,1.352,91.874,0A135.037,135.037,0,0,0,38.556,11.654C-1.973,32.91-14.833,110.58,20.875,141.845a.407.407,0,0,0-.013.668,136.186,136.186,0,0,0,23.79,13.052c21.876,9.674,47.629,13.876,69.939,3.382,34.047-15.154,34.558-57.32,28.824-90.066Z" transform="translate(0 0)" fill="#d08b5b"/>
      <path id="_Skin-3" data-name="âœ‹ Skin" d="M143.415,68.881C140.607,33.07,132.056,1.352,91.874,0A135.037,135.037,0,0,0,38.556,11.654C-1.973,32.91-14.833,110.58,20.875,141.845a.407.407,0,0,0-.013.668,136.186,136.186,0,0,0,23.79,13.052c21.876,9.674,47.629,13.876,69.939,3.382,34.047-15.154,34.558-57.32,28.824-90.066Z" transform="translate(0 0)" fill="none"/>
      <g id="Smile" transform="translate(40.471 38.518)">
        <path id="_Ink" data-name="ðŸ– Ink" d="M46.236,82.09a16.3,16.3,0,0,1-6.183-1.234,17.466,17.466,0,0,1-4.035-2.318,17.189,17.189,0,0,1-3.285-3.314,3.394,3.394,0,0,1-.685-2.627,3.788,3.788,0,0,1,1.474-2.374,3.632,3.632,0,0,1,2.162-.752,3.136,3.136,0,0,1,.483.037A3.338,3.338,0,0,1,38.4,70.985l.132.182a11.536,11.536,0,0,0,4.227,3.546,9.6,9.6,0,0,0,4.192.978,9.288,9.288,0,0,0,1.039-.059c3.426-.387,5.8-2.157,8.524-4.886.28-.286.576-.6.961-1a1.521,1.521,0,0,1,.8-.614,1.634,1.634,0,0,1,.519-.083,1.766,1.766,0,0,1,1.446.755,1.613,1.613,0,0,1,.273,1.061,10.923,10.923,0,0,1-3.626,6.947,15.885,15.885,0,0,1-3.742,2.609,15.583,15.583,0,0,1-4.153,1.424A15.3,15.3,0,0,1,46.236,82.09Zm4.351-24.644h0a14.941,14.941,0,0,1-5.328-1.074,26.908,26.908,0,0,1-6.265-3.555,2.407,2.407,0,0,1-.875-1.39,2.88,2.88,0,0,1,.124-1.561A3.552,3.552,0,0,1,39.3,48.341a2.568,2.568,0,0,1,1.644-.641,2.333,2.333,0,0,1,1.272.39l.424.327,0,0c2.177,1.683,5.467,4.227,8.623,4.227a5.148,5.148,0,0,0,3.836-1.7,5.672,5.672,0,0,0,1.076-4.567c-.728-3.551-4.589-6.139-5.756-6.848a1.075,1.075,0,0,1-.291-1.235,1.6,1.6,0,0,1,1.558-1.107,2.18,2.18,0,0,1,.368.032A11.622,11.622,0,0,1,56.144,38.7a9.271,9.271,0,0,1,2.749,2.534,10.069,10.069,0,0,1,1.755,6.727,10.742,10.742,0,0,1-2.925,6.565A9.683,9.683,0,0,1,50.587,57.446ZM15.921,33.381a3.494,3.494,0,0,1-2.268-.888,3.531,3.531,0,0,1-1.189-2.284,25.72,25.72,0,0,1,.137-6.7c.081-.651.164-1.324.223-2.049a4.009,4.009,0,0,1,1.52-2.866,4.681,4.681,0,0,1,2.879-1.012,3.549,3.549,0,0,1,2.177.685,3.228,3.228,0,0,1,1.2,2.14,17.969,17.969,0,0,1-1.876,11.075A3.1,3.1,0,0,1,15.921,33.381Zm50.886-1.519a3.056,3.056,0,0,1-2.4-1.027A10.319,10.319,0,0,1,62.2,25.363a6.339,6.339,0,0,1,1.729-5.442,3.588,3.588,0,0,1,.277-.422,3.916,3.916,0,0,1,3.013-1.733,3.264,3.264,0,0,1,.915.135,4.406,4.406,0,0,1,2.943,2.569,9.081,9.081,0,0,1,.364,4.968,16.628,16.628,0,0,1-1.506,4.686,3.041,3.041,0,0,1-1.3,1.286A3.945,3.945,0,0,1,66.807,31.862ZM.563,15.9A.554.554,0,0,1,.1,15.619a.62.62,0,0,1-.037-.608A21.111,21.111,0,0,1,4.8,9.019a29.265,29.265,0,0,1,6.335-4.328,27.243,27.243,0,0,1,7.523-2.625l.8-.141a19.576,19.576,0,0,1,3.283-.355,5.073,5.073,0,0,1,4.052,1.511,3.442,3.442,0,0,1,.814,2.445,2.24,2.24,0,0,1-.814,1.6A6.241,6.241,0,0,1,22.515,8.38c-.337,0-.686-.009-1.023-.017H21.48c-.324-.008-.692-.017-1.056-.017-.336,0-.635.008-.916.024A28.927,28.927,0,0,0,13.14,9.455C8.611,10.749,4.9,13.1.859,15.807A.527.527,0,0,1,.563,15.9Zm77.478-3.241h0c-.115-.027-.229-.056-.339-.085a19.165,19.165,0,0,1-3.715-1.449l-1.206-.594A33.507,33.507,0,0,0,68.473,8.7a50.842,50.842,0,0,0-9.814-2.167,4.01,4.01,0,0,1-1.969-.747,2.95,2.95,0,0,1-1.1-1.677,3,3,0,0,1,.339-2.514A3.2,3.2,0,0,1,57.483.253,3.5,3.5,0,0,1,58.807,0a3.9,3.9,0,0,1,.765.077L60.187.2a43.922,43.922,0,0,1,10.6,3.443A21.432,21.432,0,0,1,75.448,6.71a13.607,13.607,0,0,1,3.3,4.259c.115.889.008,1.11-.111,1.259l-.034.043-.03.041a.852.852,0,0,1-.526.35Z"/>
      </g>
    </g>
    <path id="_Ink-2" data-name="ðŸ– Ink" d="M295.537,152.335a10.728,10.728,0,0,0,2.971-4.986,10.185,10.185,0,0,0,0-5.461c-.548-1.892-1.731-3.4-1.465-5.367a4.673,4.673,0,0,1,.123-.595c1.023-3.706,3.539-6.381,2.639-10.49a7.256,7.256,0,0,0-1.4-3.026c.074-.89.139-1.789.192-2.688a14.95,14.95,0,0,0-.151-11.474,45.176,45.176,0,0,0-.892-5.405A10.833,10.833,0,0,0,297,98.171a68.009,68.009,0,0,0-3.034-7.142,2.737,2.737,0,0,0-.264-1.92,17.754,17.754,0,0,0-2.257-3c-.587-1.1-1.178-2.185-1.765-3.259-.272-.493-.572-1.041-.9-1.621.9-1.749,1.382-3.453.429-5.509a2.415,2.415,0,0,0-2.153-1.292c-.886.055-1.78.1-2.679.132a19.436,19.436,0,0,0-5.624-5.123c-2.066-1.832-4.161-3.629-6.2-5.465-.577-.522-1.158-1.044-1.735-1.566,0-.013-.008-.03-.012-.043-.426-1.622-.9-3.223-1.383-4.832-.3-1-.389-2.041-1.317-2.585-1.939-1.134-4.922-1.314-7.148-1.506-.221-.205-.442-.407-.663-.612a11.339,11.339,0,0,0-.442-8.628,1.98,1.98,0,0,0-2.766-.758,8.953,8.953,0,0,1-6.407,1.768c-3.29-2.645-16.559-14.605-18.609-15.868-.025-.045-.046-.091-.073-.136a17.139,17.139,0,0,0-4.126-4.71l-.674-.737a9.2,9.2,0,0,1,1.555-4.07c.09-.137.192-.27.295-.4a2.027,2.027,0,0,0-2.369-3.214c-.147.068-.295.137-.442.21-1.573.734-3.313,1.531-5.125,2.2-.663-.26-1.339-.5-1.956-.755l-6.6-2.776c-1.087-.457-2.236-.844-3.287-1.382a5.1,5.1,0,0,0-5.348-4.136,5.064,5.064,0,0,1,.673-1.416c.09-.133.188-.261.291-.385,1.305-1.588-.438-4.532-2.3-3.12-.131.1-.266.2-.4.3-.518.38-1.049.737-1.585,1.083a3.465,3.465,0,0,0-2.838-.067,28.722,28.722,0,0,0-6.281,3.29c-.08.059-.163.108-.244.163A5.294,5.294,0,0,0,187.3,7.234h-.076a5.069,5.069,0,0,0-4.82-2.4c.125-2.395-2.167-4.531-4.253-4.791A4.921,4.921,0,0,0,172.784,3.7l-.611,2.078A20.922,20.922,0,0,0,166.2,3.635c-4.752-.871-9.4.056-13.976,1.436-.457.138-.914.279-1.372.421C150.2,4.7,149.583,3.89,149,3.134c-1.011-1.305-3.437-.261-3.273,1.417a2.8,2.8,0,0,1-1.06,2.582,15.017,15.017,0,0,1-2.722.134,8.6,8.6,0,0,1-3.83-.736A5.11,5.11,0,0,1,136,4.711c-1.667-2.751-5.9-3.491-7.92-.869-2.123-.972-4.8.368-5.981,2.258-.617.988-1.9,1.541-3.522,2.016-1.216.356-2.459.626-3.707.862a1.881,1.881,0,0,0-2.588-.657c-.582.45-1.148.912-1.705,1.385-4.3.62-8.578.642-12.678-1.112-3.471-1.485-6.659,2.571-6.086,5.976-1.005.547-2.1.912-3.089,1.485a12.584,12.584,0,0,0-5.03,5.557c-.194.416-.37.839-.537,1.264-.81.689-1.61,1.4-2.392,2.144l-3.9-2.093a1.908,1.908,0,0,0-2.807,1.194,12.608,12.608,0,0,1-2.173,5.615A88.324,88.324,0,0,0,61.65,36.315c-3.76,1.233-7.758,1.952-11.043,2.76a1.976,1.976,0,0,0-1.1,2.837q1.007,1.624,2.009,3.248-2.8,2.863-5.282,5.966A111.386,111.386,0,0,0,34.306,69.809q-2.05.867-4.1,1.729a2.061,2.061,0,0,0-.843,3.334,12.68,12.68,0,0,1,1.35,1.772c-1.935,3.351-4.214,6.407-7.4,8.41A5.182,5.182,0,0,0,21.225,87.7c-.331.231-.659.479-.982.732-.9.71-1.444,2.26-.389,3.18a12.557,12.557,0,0,1,2.025,2.273c.127.484.258.972.389,1.455a35.872,35.872,0,0,0-7.275,9.878,1.569,1.569,0,0,0-1.252.257c-3.306,2.555-3.4,6.625-2.074,10.263a38.8,38.8,0,0,0,1.26,16.413,15.712,15.712,0,0,0-3.756,8.14c-.88,5.187-.941,13.165-1.17,18.459A19.079,19.079,0,0,0,3.325,167L1.1,168.153A2.3,2.3,0,0,0,0,170.16a16.689,16.689,0,0,0,3.568,9.231,20.613,20.613,0,0,0,3.02,5.7,43.259,43.259,0,0,1,2.6,3.745,2.426,2.426,0,0,1,.168.342,7.672,7.672,0,0,0-.794,1.348c-1.89,3.484-1.919,7.567.765,10.6a2.726,2.726,0,0,0-.151,3.681c5.806,6.938,10.646,15.373,18.7,19.058a2.138,2.138,0,0,1,.1.193c-1.633,4.109-1.853,6.244-.52,10.49a1.142,1.142,0,0,0,.033.111c.712,2.225,2.021,5.791,4.382,6.484a7.615,7.615,0,0,0,2.2.312q2.811,2.831,5.614,5.671a20.58,20.58,0,0,1,.3,2.837,2.448,2.448,0,0,0,3.036,2.418c.544-.167,3.556-3.227,4.108-3.21.278.291.548.582.818.877.994,1.091,2.373,2.812,2.488,3.954.221,2.153,1.571,4.618,3.752,5.054a2,2,0,0,0,3.13,0c.065-.073.131-.146.2-.21l.315-.039q.724,2.26,1.453,4.515c.953,2.962,4.595,4.866,7.181,3.137.417.261.826.539,1.236.817.622.415,1.252.839,1.9,1.237.037.111.074.223.106.33a2.237,2.237,0,0,0,3.22,1.28,9.126,9.126,0,0,0,1.015.274,9.791,9.791,0,0,0,5.364-.359c1.248-.445,2.439-1.3,3.781-1.412.084-.007.17,0,.255,0a10.691,10.691,0,0,0,5.569,5.055,9.929,9.929,0,0,0,7.578-.524,18.494,18.494,0,0,0,2.384,3.746,1.407,1.407,0,0,0,2.025,0q1.55-1.437,3.086-2.885c.742-.3,1.491-.658,2.273-.992,2.444-1.044,5.124-1.477,7.384-2.986a12.681,12.681,0,0,0,2.914-2.69,21.131,21.131,0,0,0,4.3-3.474,4.155,4.155,0,0,0,1.976-.5,8.662,8.662,0,0,0,4.3-7.447,54.488,54.488,0,0,0,3.887-17.235,44.827,44.827,0,0,0-.008-5.885,10.691,10.691,0,0,0-.929-3.544,11.278,11.278,0,0,1-.438-1.19c.029-1.318.045-2.636.061-3.95a7.459,7.459,0,0,1,1.788-3.009c1.305-1.344,1.9-4.134.716-5.795q-1.16-1.611-2.316-3.223c.217-4.609,1.272-11.945-1.068-12.715.094-.685.295-1.361.409-2.041a12.886,12.886,0,0,0-1.44-9.052c-.348-.595-.642-1.121-.884-1.635l-.454-2.825c-.233-1.451-.462-2.915-.659-4.387-.1-1.875-.2-3.749-.3-5.628q-.141-2.594-.311-5.191c.045-.775.11-1.549.2-2.324.561-4.618,2.365-6.325,5.491-9.535.491-.081.978-.171,1.457-.274,2.23-.484,4.562-1.233,6.857-.963,2.492.291,4.722,1.417,7.144-.021.712-.428,2.279-1.609,2.414-2.546a.6.6,0,0,1,.037-.15,5.021,5.021,0,0,1,.52-.051c1.923-.068,3.76.723,5.7.505a8.778,8.778,0,0,0,5.7-2.9,13.626,13.626,0,0,0,5.295.4,11.422,11.422,0,0,0,4.19-1.481c.97-.548.663-.706,1.718-.261,2.4,1.019,4.574,2.362,7.279,1.665a7.669,7.669,0,0,0,3.633-2.217,12.7,12.7,0,0,0,.925-.971c1.285.68,4.517,2.217,5.049,2.354a7.907,7.907,0,0,0,4.566-.188c1.076-.377,2.394-1.4,3.339-1.613,1.223-.274,3.94,1.506,5.4,2.118a9.872,9.872,0,0,0,7.868.231c.892-.381,2.627-1.9,3.294-1.887,1.084,1.4,4.112,9.056,5.02,11.851,3.678,11.3,4.632,46.577,2.934,55.577-.065.265-.135.526-.2.792-2.087,7.828-4.259,15.788-7.749,23.081-3.294,6.873-7.848,13.062-14.382,16.815-6.776,3.895-14.73,4.917-22.348,4.391a74.486,74.486,0,0,1-14.476-2.658c-2.48-.672-4.939-1.421-7.385-2.2-1.068-.338-2.152-.655-3.2-1.049a4.711,4.711,0,0,0-4.591.141c-1.612.813-2.025,3.214-1.187,4.725,1.367,2.465,3.871,2.636,6.289,3.355,2.463.732,4.934,1.434,7.422,2.063a92.3,92.3,0,0,0,14.5,2.542c8.748.766,17.762-.415,25.724-4.408.9-.454,1.768-.937,2.606-1.459-.311.454-.626.907-.945,1.357a3.048,3.048,0,0,0,1.011,4.044c.393.214.786.419,1.182.621.053.133.11.265.176.4a8.693,8.693,0,0,0,5.925,4.391c2.872.719,6.088.21,9.01.12l8.122-.257c.638-.017,1.277-.039,1.915-.06q4.824-.154,9.64-.3c2.864-.09,2.729.141,5.417-1.057a8.07,8.07,0,0,0,3.007-2.315,11.935,11.935,0,0,0,1.493-.826,19.8,19.8,0,0,0,4.165-3.826c2.14.706,5.139.051,5.556-2.76.671-4.5,6.26-6.42,8.871-9.672a15.043,15.043,0,0,0,3.535-9.36c5.311-2.688,8.2-9.771,8.875-15.779.315-2.786.266-5.769.72-8.6a4.7,4.7,0,0,0,.532-.723,60.84,60.84,0,0,0,3.519-6.959,8.932,8.932,0,0,1,4.816-1.8c4.3-.261,5.114-6.334,1.011-7.8l-.057-.021a11.694,11.694,0,0,0-.331-9.112c.057-.3.11-.595.164-.894a14,14,0,0,0,3.478-9.694,11.129,11.129,0,0,1,3.519-1.746c1.993-.573,2-3.116.532-4.254a7.061,7.061,0,0,1-1.493-1.584,10.422,10.422,0,0,0-1.465-9.531l3.965-5.315c.876-1.173,1.338-3.163,0-4.275Q296.824,153.4,295.537,152.335Z" transform="translate(479.5 216)" fill="#46291c"/>
    <g id="Sunglasses" transform="translate(574.013 388.047)">
      <path id="_Ink-3" data-name="ðŸ– Ink" d="M65.643,36.378c-.683,0-1.373-.029-2.05-.087a20.27,20.27,0,0,1-6.849-1.822,21.943,21.943,0,0,1-5.211-3.42,23.607,23.607,0,0,1-3.551-3.905,15.984,15.984,0,0,1-1.869-3.279l-.081-.209c-.123-.322-.24-.648-.364-.993-.839-2.337-1.79-4.987-4.508-5.47l-.66-.119a7.8,7.8,0,0,1-2-.59,3.631,3.631,0,0,1-1.558-1.426,4.314,4.314,0,0,1-.6-1.964c-.469.036-.944.071-1.451.107-2.036.43-9.357.811-15.14,1.056-6.462.273-12.723.446-13.636.446a10.7,10.7,0,0,1-3.428.773,2.6,2.6,0,0,1-1.61-.438A2.684,2.684,0,0,1,.076,13.65a2.4,2.4,0,0,1,.2-1.694A5.407,5.407,0,0,1,3.235,9.77,20.8,20.8,0,0,1,6.871,8.691c.086,0,8.7.071,16.648.071,8.416,0,13.08-.075,13.861-.223,1-1.032,2.63-1.136,4.2-1.237.407-.026.828-.053,1.224-.1a18.453,18.453,0,0,1,5.5-2.365c.384-.145.725-.271,1.043-.384A40.726,40.726,0,0,1,59.18,2.408c1.233-.117,2.512-.176,3.8-.176a48.671,48.671,0,0,1,6.563.467c1.53.207,2.939.463,4.308.782a63.933,63.933,0,0,1,7.64,1.545L82,5.158a24.785,24.785,0,0,0,6.169,1,12.253,12.253,0,0,0,2.063-.17,27.531,27.531,0,0,0,6.531-2.2l.272-.123A46.553,46.553,0,0,1,113.963,0a50.669,50.669,0,0,1,12.121,1.448,16.422,16.422,0,0,0,1.972.384l.05,0a6.3,6.3,0,0,1,1.955.352,3.23,3.23,0,0,1,2.1,2.224,2.968,2.968,0,0,1-.01,1.437,3.217,3.217,0,0,1-.709,1.325c-.03,1-.01,2.041.01,3.138v0a30.748,30.748,0,0,1-.415,7.183,30.275,30.275,0,0,1-1.6,8.335,14.946,14.946,0,0,1-2.9,4.978,12.1,12.1,0,0,1-6.581,3.624,15.859,15.859,0,0,1-3.5.412,11.308,11.308,0,0,1-2.512-.266A18.762,18.762,0,0,1,109,33.72a18.985,18.985,0,0,1-4.559-2.136A18.479,18.479,0,0,1,99.4,26.822a16.492,16.492,0,0,1-2.794-6.333,22.07,22.07,0,0,1-.417-6.762l.036-.31a10.866,10.866,0,0,0-4.306-.783c-.51-.018-.969-.033-1.431-.033-.262,0-.5,0-.725.015-.725.081-1.393.184-2.043.317a5.357,5.357,0,0,0-2.09,1.177l-.045.853a43.806,43.806,0,0,1-.834,6.359,22.432,22.432,0,0,1-1.344,4.446,12.04,12.04,0,0,1-2.5,3.773,12.423,12.423,0,0,1-2.765,2.939,18.167,18.167,0,0,1-5.9,2.956A22.993,22.993,0,0,1,65.643,36.378ZM73.25,7.617a1.415,1.415,0,0,0-1.355,1.306,1.179,1.179,0,0,0,.961,1.339,4.532,4.532,0,0,1,2.913,1.9l.073.112a1.278,1.278,0,0,0,1.1.632,1.513,1.513,0,0,0,1.3-.748,1.186,1.186,0,0,0-.068-1.25,7.239,7.239,0,0,0-4.6-3.252A1.514,1.514,0,0,0,73.25,7.617Zm49.309-1.774a1.459,1.459,0,0,0-1.213.679,1.375,1.375,0,0,0,.428,1.809l.057.042a2.549,2.549,0,0,1,1.075,1.672l.005.083a1.336,1.336,0,0,0,1.4,1.3,1.353,1.353,0,0,0,.977-.386,1.219,1.219,0,0,0,.32-.919,5.268,5.268,0,0,0-2.419-4.09A1.1,1.1,0,0,0,122.559,5.843Z"/>
    </g>
  </g>
</svg>
