<svg xmlns="http://www.w3.org/2000/svg" width="266.69" height="326.101" viewBox="0 0 266.69 326.101">
  <g id="Head-shaved" transform="translate(-1147.517 -326.025)">
    <g id="Shaved_2" data-name="Shaved 2" transform="translate(1160.531 326.025)">
      <g id="_Skin" data-name="âœ‹ Skin" transform="translate(9.317 44.506)">
        <path id="_Skin-2" data-name="âœ‹ Skin" d="M204.624,59.3c-4.4-15.867-3.768-17.583-10.32-32.739C172.575-17.464,27.371-2.722,12.552,41.23,4.512,65.074,6.4,98.654,4.308,119.33q-.961,16.443-1.921,32.886-.338,5.678-.685,11.356Q1.025,174.624.4,185.679c-2.73,22.706,8.66,25.016,28.2,24.344,5.165,12.485,13.53,22.906,23.863,31.385-2.494,6.8,6.55,10.316,11.429,13.033C90.434,269.29,123.04,278.348,152.442,270c8.639-2.453,44.315-10.95,55.285-37.254,5.387-12.917,16.337-79.808,1.9-139.98Z" transform="translate(0 0)" fill="#d08b5b"/>
        <path id="_Skin-3" data-name="âœ‹ Skin" d="M204.624,59.3c-4.4-15.867-3.768-17.583-10.32-32.739C172.575-17.464,27.371-2.722,12.552,41.23,4.512,65.074,6.4,98.654,4.308,119.33q-.961,16.443-1.921,32.886-.338,5.678-.685,11.356Q1.025,174.624.4,185.679c-2.73,22.706,8.66,25.016,28.2,24.344,5.165,12.485,13.53,22.906,23.863,31.385-2.494,6.8,6.55,10.316,11.429,13.033C90.434,269.29,123.04,278.348,152.442,270c8.639-2.453,44.315-10.95,55.285-37.254,5.387-12.917,16.337-79.808,1.9-139.98Z" transform="translate(0 0)" fill="none"/>
      </g>
      <path id="_Ink" data-name="ðŸ– Ink" d="M145.921,321.9a102.788,102.788,0,0,1-21.065-2.2,69.266,69.266,0,0,1-11.573-3.522,43.719,43.719,0,0,1-10.827-6.715,2.652,2.652,0,0,1-.822-2.794,2.973,2.973,0,0,1,2.17-2.328c.509-.1,1.021-.209,1.516-.312.978-.2,1.989-.414,2.988-.6a1.863,1.863,0,0,1,.339-.031,2.442,2.442,0,0,1,1.843.936,1.8,1.8,0,0,1,.414,1.5l2.909.751c.8.206,1.849.479,2.9.763l1.448.4a117.242,117.242,0,0,0,12.554,2.814,87.783,87.783,0,0,0,14.065,1.11,97.277,97.277,0,0,0,12.117-.768c11.292-1.417,27.514-5.444,40.668-16.579a55.269,55.269,0,0,0,13.5-16.7c4.181-8.053,5.512-17.08,6.609-26.393,2.7-22.928,2.619-47.2-.261-78.7-1.252-13.692-3-27.424-4.547-39.051-.248-1.862-.506-3.757-.756-5.589l0-.036v-.007c-.642-4.711-1.305-9.582-1.871-14.382a14.274,14.274,0,0,1-4.939-2.4,4.965,4.965,0,0,1-1.876-2.583,6.516,6.516,0,0,1-4.021-2.532l-.134-.188c-2.843-4.122-7.86-6.406-11.914-7.935-2.321-.876-4.717-1.666-7.034-2.43l-1.066-.352c-.779-.26-1.585-.559-2.365-.848a29.068,29.068,0,0,0-6.4-1.84,14.383,14.383,0,0,0-1.708-.095c-1.133,0-2.287.108-3.4.213h-.013c-1.124.105-2.285.214-3.428.214a14.85,14.85,0,0,1-1.585-.079,12.829,12.829,0,0,1-8.013-3.659,11.777,11.777,0,0,1-1.982-2.62,44.036,44.036,0,0,1-9.255.87c-3.126,0-6.34-.223-9.448-.439l-.05,0c-3.131-.217-6.366-.442-9.57-.442-1.287,0-2.475.035-3.63.107a37.056,37.056,0,0,0-9.541,2.344c-3.4,1.165-6.925,2.37-10.623,2.37l-.284,0a8.2,8.2,0,0,1-5.212-1.917,132.85,132.85,0,0,0-17.422,5.045l-.022.008c-.818.278-1.664.565-2.483.84-3.62,1.216-7.219,2.7-10.7,4.134-2.54,1.047-5.165,2.129-7.775,3.1-.006.006-.006.006-.006.012a4.728,4.728,0,0,1-1.8,2.536,5.01,5.01,0,0,1-2.879.856,6.265,6.265,0,0,1-1.1-.1c-4.472-.8-8.632-2.708-12.655-4.553a60.141,60.141,0,0,0-10.975-4.191c-.429,1.566-.87,3.151-1.3,4.683-1.81,6.5-3.682,13.222-5.02,20a247.176,247.176,0,0,0-3.622,25.577c-.759,8.352-1.154,17.079-1.174,25.939-.005,3.79.073,7.871.255,13.231.025.775.075,1.579.128,2.43.195,3.128.415,6.672-.637,9.478l-.119.3h-.006a.862.862,0,0,1-.793.587.651.651,0,0,1-.506-.238c-2.226-2.591-2.937-6.506-3.565-9.961-.078-.432-.153-.84-.23-1.248-.735-3.862-1.3-8-1.82-13.43-.432-4.481-.7-9.033-.8-13.531-.1-4.471-.032-9.033.2-13.559A222.682,222.682,0,0,1,8.9,120.021,158.8,158.8,0,0,1,15.778,93.6c-.06.005-.115.008-.167.008A2.361,2.361,0,0,1,13.661,92.1a7.614,7.614,0,0,1-.721-2.651,40.526,40.526,0,0,1,.785-9.619l.556-3.259A55.284,55.284,0,0,1,16.412,67.5,76.692,76.692,0,0,1,27.027,47.445a78.733,78.733,0,0,1,16.2-16.355A81.241,81.241,0,0,1,63.4,20.019a3.935,3.935,0,0,1,1.39-.264,3.471,3.471,0,0,1,1.133.189A195.394,195.394,0,0,1,107.643,3.458c3.974-1.073,8.685-2.286,13.486-3.143A19.158,19.158,0,0,1,124.445,0c3.621,0,6.223,1.314,7.734,3.906a7.968,7.968,0,0,1,.987,2.614,91.26,91.26,0,0,1,20.018-2.186,100.432,100.432,0,0,1,14.308,1.041,4.15,4.15,0,0,1,3.155,2.445,5.809,5.809,0,0,1-.043,5.215c-.146.251-.3.52-.478.784a59.959,59.959,0,0,1,10.727,1.874,5.935,5.935,0,0,1,3.534,3.087,4.3,4.3,0,0,1,.231,3.566c-.095.223-.2.451-.294.67l0,0-.015.034a36.246,36.246,0,0,1,8.137,2.365,34.744,34.744,0,0,1,7.448,4.32,6.878,6.878,0,0,1,1.5,1.574A50.188,50.188,0,0,1,207,31a52.434,52.434,0,0,1,24.875,6.338,5.878,5.878,0,0,1,2.754,3.831,5.224,5.224,0,0,1-.655,4.192c-.569.813-1.142,1.556-1.752,2.271a21.993,21.993,0,0,1,5.638,3.02,17.54,17.54,0,0,1,4.413,4.859,18.7,18.7,0,0,1,2.527,7.1,17.538,17.538,0,0,1-.5,7.424,13.356,13.356,0,0,1,3.435,12.228,12.065,12.065,0,0,1-6.839,8.5,6.033,6.033,0,0,1-1.391,5.974,23.363,23.363,0,0,1-8.175,5.526,5.218,5.218,0,0,1-.6,2.365,16.844,16.844,0,0,1-6.115,6.435,19.558,19.558,0,0,1-8.57,2.875c2.048,8.617,3.744,17.431,5.3,25.721,1.463,7.775,2.739,15.507,3.792,22.981,1.1,7.821,2,15.607,2.655,23.139l.164,1.913a384.893,384.893,0,0,1,1.523,39.83c-.135,6.927-.525,13.639-1.159,19.949a194.175,194.175,0,0,1-2.956,19.616,60.019,60.019,0,0,1-9.8,22.481,66.926,66.926,0,0,1-7.962,9.346,71.7,71.7,0,0,1-9.571,7.847,83.246,83.246,0,0,1-22.776,10.821,100.486,100.486,0,0,1-24.886,4.226C148.9,321.869,147.4,321.9,145.921,321.9ZM71.148,299.121c-3.984,0-8.5-3.442-11.492-5.72l-.508-.386A72.758,72.758,0,0,1,47.1,281.926a60.208,60.208,0,0,1-9.025-13.984,33.741,33.741,0,0,1-2.683-8.83,24.055,24.055,0,0,1-9.523,1.913,25.6,25.6,0,0,1-14.323-4.3,24.479,24.479,0,0,1-9.13-12.286A45.9,45.9,0,0,1,0,229.046v-.61a53.79,53.79,0,0,1,.589-7.709A39.863,39.863,0,0,1,2.5,213.084c1.987-5.442,5.088-9.517,9.218-12.111a18.164,18.164,0,0,1,4.831-2.045,22.09,22.09,0,0,1,5.713-.776,15.069,15.069,0,0,1,6.643,1.393,9.018,9.018,0,0,1,4.474,4.7.34.34,0,0,1-.033.329.505.505,0,0,1-.406.218.378.378,0,0,1-.1-.012l-.816-.207a20.183,20.183,0,0,0-4.9-.75,10.988,10.988,0,0,0-4.163.814,17.688,17.688,0,0,0-7.442,5.345c-4.745,6.195-4.833,14.726-4.486,20.6l.02.338c.543,8.656,3.218,14.261,7.951,16.659a17.013,17.013,0,0,0,7.839,1.412c.425,0,.859,0,1.278-.008h.07l.435,0h.316a35.515,35.515,0,0,1,10.871,1.545,3.166,3.166,0,0,1,2.071,2.291A2.664,2.664,0,0,1,41.1,255.4a17.246,17.246,0,0,1-1.739,1.437c2.187,2.334,3.834,4.179,5.342,5.981,2.948,3.527,6.085,6.935,9.324,10.13a84.377,84.377,0,0,0,10.1,8.688c1.387.989,2.9,1.886,4.363,2.753a35.233,35.233,0,0,1,7.24,5.157A4.85,4.85,0,0,1,77.2,293.2a6.282,6.282,0,0,1-1.465,3.678A5.688,5.688,0,0,1,71.148,299.121ZM41.193,232a8.912,8.912,0,0,1-5.177-1.781,20.294,20.294,0,0,1-3-2.907,20.987,20.987,0,0,0-2.852-2.794,12.24,12.24,0,0,0-7.379-2.289,14.042,14.042,0,0,0-7.411,2.047.258.258,0,0,1-.375-.088.321.321,0,0,1-.023-.31,15.268,15.268,0,0,1,2.4-3.568,14.484,14.484,0,0,1,3.2-2.643,15.579,15.579,0,0,1,8.12-2.207h.06l.277,0a18.6,18.6,0,0,1,9.119,2.926l.292.173c.649.387,1.353.749,2.1,1.133,2.425,1.249,4.93,2.54,6.04,4.878a4.688,4.688,0,0,1-.708,5.495A6.44,6.44,0,0,1,41.193,232Z" fill="#5265f7"/>
    </g>
    <g id="Smile" transform="translate(1265.165 483.474)">
      <path id="_Ink-2" data-name="ðŸ– Ink" d="M67.249,119.369a23.717,23.717,0,0,1-8.993-1.795,25.405,25.405,0,0,1-5.869-3.371,25,25,0,0,1-4.778-4.818,4.934,4.934,0,0,1-1-3.82,5.508,5.508,0,0,1,2.145-3.452,5.284,5.284,0,0,1,3.144-1.094,4.563,4.563,0,0,1,.7.054,4.855,4.855,0,0,1,3.25,2.149l.192.265a16.777,16.777,0,0,0,6.147,5.157,13.959,13.959,0,0,0,6.1,1.423,13.513,13.513,0,0,0,1.511-.085c4.983-.563,8.438-3.136,12.4-7.1.407-.415.838-.866,1.4-1.461a2.212,2.212,0,0,1,1.16-.893,2.377,2.377,0,0,1,.755-.12,2.568,2.568,0,0,1,2.1,1.1,2.344,2.344,0,0,1,.4,1.543,15.882,15.882,0,0,1-5.274,10.1,23.1,23.1,0,0,1-5.443,3.793,22.669,22.669,0,0,1-6.041,2.071A22.254,22.254,0,0,1,67.249,119.369Zm6.329-35.835h0a21.736,21.736,0,0,1-7.749-1.561,39.14,39.14,0,0,1-9.113-5.17,3.5,3.5,0,0,1-1.272-2.022,4.187,4.187,0,0,1,.18-2.27,5.165,5.165,0,0,1,1.534-2.217,3.736,3.736,0,0,1,2.391-.933,3.393,3.393,0,0,1,1.849.567l.616.475.007.005c3.167,2.448,7.952,6.146,12.542,6.146a7.489,7.489,0,0,0,5.579-2.474,8.247,8.247,0,0,0,1.566-6.641c-1.059-5.163-6.675-8.927-8.371-9.958a1.562,1.562,0,0,1-.423-1.8,2.325,2.325,0,0,1,2.265-1.609,3.172,3.172,0,0,1,.535.047,16.907,16.907,0,0,1,5.945,2.147,13.484,13.484,0,0,1,4,3.685,14.639,14.639,0,0,1,2.553,9.782,15.618,15.618,0,0,1-4.254,9.546A14.085,14.085,0,0,1,73.578,83.534ZM23.157,48.54a5.082,5.082,0,0,1-3.3-1.292,5.135,5.135,0,0,1-1.729-3.321,37.39,37.39,0,0,1,.2-9.74c.118-.946.239-1.925.324-2.98a5.829,5.829,0,0,1,2.21-4.167,6.81,6.81,0,0,1,4.188-1.472,5.163,5.163,0,0,1,3.167,1,4.694,4.694,0,0,1,1.749,3.112,26.124,26.124,0,0,1-2.729,16.1A4.506,4.506,0,0,1,23.157,48.54ZM97.17,46.332a4.446,4.446,0,0,1-3.485-1.493,15,15,0,0,1-3.212-7.958c-.321-3.318.572-6.128,2.514-7.913a5.218,5.218,0,0,1,.4-.614,5.7,5.7,0,0,1,4.382-2.521,4.749,4.749,0,0,1,1.331.2,6.408,6.408,0,0,1,4.281,3.735,13.2,13.2,0,0,1,.53,7.224,24.174,24.174,0,0,1-2.191,6.814,4.423,4.423,0,0,1-1.894,1.87A5.739,5.739,0,0,1,97.17,46.332ZM.819,23.125a.806.806,0,0,1-.673-.413.9.9,0,0,1-.054-.885,30.7,30.7,0,0,1,6.885-8.712,42.566,42.566,0,0,1,9.215-6.293A39.632,39.632,0,0,1,27.133,3.006L28.3,2.8a28.479,28.479,0,0,1,4.775-.517c2.664,0,4.592.719,5.893,2.2a5,5,0,0,1,1.184,3.556,3.257,3.257,0,0,1-1.184,2.324,9.079,9.079,0,0,1-6.222,1.825c-.49,0-1-.013-1.488-.025h-.018c-.471-.012-1.006-.025-1.536-.025-.489,0-.924.011-1.332.035a42.083,42.083,0,0,0-9.262,1.578c-6.587,1.882-11.987,5.3-17.863,9.237A.767.767,0,0,1,.819,23.125ZM113.51,18.413h0c-.167-.04-.333-.081-.493-.123a27.879,27.879,0,0,1-5.4-2.108l-1.755-.864a48.743,48.743,0,0,0-6.267-2.669A73.964,73.964,0,0,0,85.318,9.5,5.833,5.833,0,0,1,82.455,8.41a4.29,4.29,0,0,1-1.6-2.439,4.362,4.362,0,0,1,.494-3.656A4.658,4.658,0,0,1,83.607.368,5.085,5.085,0,0,1,85.534,0a5.677,5.677,0,0,1,1.112.111l.894.183A63.894,63.894,0,0,1,102.957,5.3a31.173,31.173,0,0,1,6.78,4.457,19.787,19.787,0,0,1,4.793,6.193c.168,1.293.012,1.614-.161,1.831l-.05.063-.044.06a1.239,1.239,0,0,1-.766.509Z" transform="translate(0)"/>
    </g>
    <g id="_no-mask" data-name="*no-mask" transform="translate(1147.517 510.234)">
      <rect id="mask_no-mask_background" data-name="mask/*no-mask background" width="247.126" height="141.891" fill="none"/>
    </g>
    <g id="Glasses_2" data-name="Glasses 2" transform="translate(1171.17 490.32)">
      <path id="_Ink-3" data-name="ðŸ– Ink" d="M115.341,73.271h0a39.091,39.091,0,0,1-20.811-6.133A27.549,27.549,0,0,1,85.91,58.3a25.44,25.44,0,0,1-3.432-10.288,33.513,33.513,0,0,1,1.128-12.522,11.355,11.355,0,0,1-3.315.436,16.184,16.184,0,0,1-4.832-.73,6.928,6.928,0,0,1-3.485-2.156c-6.751-.577-13.571-1.412-20.167-2.221C39.824,29.35,27.433,27.831,15.1,27.831c-2.937,0-5.825.087-8.584.258-2.079.288-1.961,1.776-1.846,3.216a5.077,5.077,0,0,1-.1,2.041,1.912,1.912,0,0,1-1.726,1.166A2.979,2.979,0,0,1,.052,31.675a7.563,7.563,0,0,1,.72-4.091A5.251,5.251,0,0,1,3.361,24.8C4.6,23.917,8.356,23.45,14.234,23.45A246.7,246.7,0,0,1,42.466,25.5,240.261,240.261,0,0,1,72.274,30.9a10.53,10.53,0,0,1,5.88-1.41,42.792,42.792,0,0,1,5.567.488c.6.079,1.16.154,1.689.214a37.322,37.322,0,0,1,4.689-8.2,46.021,46.021,0,0,1,7.192-7.656,36.889,36.889,0,0,1,8.947-5.66,24.888,24.888,0,0,1,9.954-2.21,20.757,20.757,0,0,1,3.344.27,46.106,46.106,0,0,1,9.683,1.531,30.284,30.284,0,0,1,8.441,3.745,25.71,25.71,0,0,1,6.768,6.462,32.455,32.455,0,0,1,4.664,9.681,23.915,23.915,0,0,1,7.959-4.646,28.232,28.232,0,0,1,9.416-1.653A20.8,20.8,0,0,1,177.1,24.525a39.829,39.829,0,0,1,9.264-13.133,36.874,36.874,0,0,1,13.909-8.1A16.845,16.845,0,0,1,210.144,0a18.266,18.266,0,0,1,7.675,1.775A26.032,26.032,0,0,1,224.684,6.5a33.267,33.267,0,0,1,5.5,6.762,32.765,32.765,0,0,1,3.571,7.9c1.844-1.545,5.047-1.781,6.791-1.784a3.31,3.31,0,0,1,1.944,1.043,2.225,2.225,0,0,1,.542,1.657c-.113,1.19-1.256,2.39-3.558,2.39A11.977,11.977,0,0,1,234.294,23c3.845,16.077-.7,26.237-5.2,31.93a30.193,30.193,0,0,1-5.441,5.328,32.652,32.652,0,0,1-6.465,3.811A35.89,35.89,0,0,1,202.7,67.127h0a34.6,34.6,0,0,1-6.754-.659,31.23,31.23,0,0,1-6.36-1.979,27.4,27.4,0,0,1-5.658-3.3,24.687,24.687,0,0,1-4.653-4.631,25.529,25.529,0,0,1-4.914-11.928,40.259,40.259,0,0,1,1.328-16.406,49.792,49.792,0,0,0-11.576-1.467,32.238,32.238,0,0,0-14.488,3.19,32.488,32.488,0,0,1,.567,15.56,33.276,33.276,0,0,1-2.36,7.137,34.712,34.712,0,0,1-3.856,6.419,35.906,35.906,0,0,1-28.634,14.212Zm3.994-62.029h0a44.925,44.925,0,0,0-15.688,3.13C92.756,21.69,85.764,35.388,87.02,46.943c.664,6.1,3.916,14.35,15.638,18.965a32.6,32.6,0,0,0,12.318,2.381,30.994,30.994,0,0,0,24.793-11.864,29.856,29.856,0,0,0,3.314-31.105C138.655,16.374,130,11.242,119.336,11.242Zm89.2-6.862a.347.347,0,0,0-.155.03,30.363,30.363,0,0,0-5.919,1.529c-1.048.347-2.036.674-2.92.895C187.435,12.327,178.1,26.791,178.3,39.761c.142,9.386,5.3,16.676,14.516,20.527a27.862,27.862,0,0,0,10.62,2.076,27.284,27.284,0,0,0,19.609-7.937c7.482-7.33,9.9-21.379,5.754-33.406C225.464,11.355,218.6,5.259,209.977,4.3a1.486,1.486,0,0,1-.689.163,2.656,2.656,0,0,1-.42-.04l-.046-.007A1.9,1.9,0,0,0,208.539,4.38ZM84.96,31.315h0l-.311.138-.009,0-.083.036.035.014.036.014a.8.8,0,0,1,.137.089l.061.045c.023-.064.049-.128.074-.191l0-.011c.018-.046.037-.093.055-.139Z" transform="translate(0)"/>
    </g>
  </g>
</svg>
